<svg xmlns="http://www.w3.org/2000/svg" viewBox="0 0 1280 500" width="1280" height="500">
<g fill="#FFFFFF">
<path d="M 887.00 176.00 C 884.44 176.25 879.50 178.60 877.00 176.00 C 864.48 179.55 858.26 182.98 851.11 195.11 C 843.95 207.24 859.27 215.94 872.00 212.00 C 865.16 200.91 879.14 184.74 892.00 191.00 C 887.50 195.91 882.43 201.66 879.25 207.25 C 876.08 212.85 870.63 219.06 868.92 224.92 C 867.22 230.79 860.74 239.85 860.03 244.97 C 859.32 250.09 874.46 256.33 876.07 251.07 C 877.69 245.82 882.38 236.72 884.00 231.00 C 885.15 235.49 883.23 242.38 884.00 248.00 C 893.31 250.70 898.95 249.51 899.22 240.22 C 899.49 230.93 902.36 225.68 903.67 217.67 C 904.98 209.66 906.68 203.71 909.70 196.70 C 912.71 189.68 917.01 186.08 924.31 184.31 C 931.60 182.53 937.48 178.71 945.33 178.33 C 953.18 177.95 960.99 175.64 969.00 175.00 C 977.01 174.36 986.81 174.26 995.00 174.00 C 1003.19 173.74 1011.21 172.21 1019.00 171.00 C 1026.79 169.79 1035.93 168.77 1043.78 169.22 C 1051.63 169.67 1058.43 171.84 1065.98 173.02 C 1073.52 174.21 1081.62 175.38 1088.93 177.07 C 1096.24 178.77 1103.76 180.26 1110.78 182.22 C 1117.80 184.18 1123.81 187.27 1130.78 189.22 C 1137.75 191.18 1143.63 194.45 1150.32 196.68 C 1157.01 198.91 1162.69 201.91 1168.92 205.08 C 1175.16 208.25 1179.82 211.19 1185.75 215.25 C 1191.69 219.30 1193.99 225.01 1196.22 231.78 C 1198.45 238.55 1200.19 247.56 1197.78 254.78 C 1195.37 262.00 1194.34 269.07 1191.98 275.98 C 1189.61 282.88 1187.28 288.38 1185.00 295.00 C 1186.60 295.29 1188.42 294.62 1190.00 295.00 C 1193.54 295.09 1199.35 294.65 1203.00 295.00 C 1206.00 295.00 1209.00 295.00 1212.00 295.00 C 1213.57 289.36 1214.00 284.13 1214.00 278.00 C 1213.64 274.28 1211.37 267.62 1214.00 264.00 C 1215.78 267.51 1215.73 270.81 1214.00 274.00 C 1217.43 278.71 1213.21 288.14 1217.26 292.74 C 1221.30 297.34 1230.39 291.77 1235.00 292.00 C 1234.34 273.83 1230.28 257.49 1222.00 242.00 C 1229.35 244.20 1232.05 248.79 1238.23 253.77 C 1244.41 258.75 1240.20 270.21 1243.00 276.00 C 1246.06 274.18 1250.50 277.05 1252.00 277.00 C 1254.93 275.74 1257.94 274.75 1261.00 274.00 C 1262.79 264.47 1260.49 253.36 1253.75 247.25 C 1247.02 241.13 1239.89 238.81 1233.75 233.25 C 1227.60 227.69 1218.89 226.05 1215.33 217.67 C 1211.77 209.29 1217.03 193.13 1214.99 184.01 C 1212.95 174.89 1212.34 163.95 1209.77 155.23 C 1207.20 146.51 1203.97 138.23 1200.78 130.22 C 1197.58 122.21 1194.62 113.79 1190.10 106.90 C 1185.58 100.01 1181.50 93.50 1175.75 87.25 C 1169.99 81.01 1163.10 77.62 1156.25 72.75 C 1149.39 67.88 1143.46 63.20 1135.68 59.32 C 1127.90 55.44 1119.51 53.57 1111.22 49.78 C 1102.94 45.98 1094.13 44.46 1085.01 41.99 C 1075.89 39.52 1063.14 40.27 1053.00 40.00 C 1042.86 39.73 1033.04 42.84 1024.02 45.02 C 1015.01 47.20 1006.08 49.67 998.07 53.07 C 990.07 56.48 983.51 60.56 977.25 66.25 C 970.99 71.93 964.79 76.06 959.08 82.08 C 953.38 88.11 948.13 93.26 943.25 100.25 C 938.37 107.24 933.69 112.15 928.92 119.92 C 924.16 127.70 919.98 132.33 916.92 141.92 C 913.86 151.51 909.59 154.92 908.31 167.31 C 907.02 179.69 897.16 175.02 887.00 176.00"/>
<path d="M 293.00 76.00 C 295.86 75.62 298.24 75.46 301.00 76.00 C 301.48 76.09 302.00 76.00 302.00 76.00 C 308.91 79.95 319.06 77.09 326.07 81.93 C 333.09 86.76 337.38 88.87 341.32 96.68 C 345.26 104.48 344.59 114.26 345.00 123.00 C 345.41 131.74 338.07 139.85 340.00 148.00 C 338.75 148.62 344.21 146.97 346.00 146.00 C 378.10 128.68 428.85 130.73 464.01 134.99 C 499.17 139.26 531.66 156.08 546.00 189.00 C 557.55 155.70 597.16 142.77 629.00 136.00 C 630.61 135.69 632.24 135.28 634.00 135.00 C 646.72 133.01 661.84 131.60 675.00 132.00 C 688.16 132.40 700.45 136.08 712.07 138.93 C 723.70 141.77 732.14 147.67 742.23 152.77 C 752.32 157.87 760.38 145.12 771.23 142.23 C 782.08 139.34 794.50 132.79 807.00 134.00 C 819.63 131.74 833.44 131.75 846.00 134.00 C 869.26 133.33 890.95 146.24 908.00 159.00 C 906.62 163.52 903.96 168.43 904.00 174.00 C 900.50 173.38 895.68 175.27 893.00 173.00 C 886.32 172.35 878.28 172.44 872.00 174.00 C 859.37 177.13 854.25 183.96 847.69 195.69 C 841.13 207.43 855.42 218.86 869.00 216.00 C 865.39 225.50 863.61 231.61 859.07 241.07 C 854.53 250.54 867.55 256.81 877.00 255.00 C 877.97 252.91 878.44 250.78 880.00 249.00 C 887.70 254.21 900.54 253.52 901.78 243.78 C 903.02 234.04 903.73 224.95 906.00 216.00 C 908.26 207.05 909.84 199.17 915.31 192.31 C 920.77 185.44 933.06 186.93 941.01 184.01 C 948.96 181.08 962.43 182.09 971.00 180.00 C 972.84 179.80 974.93 179.19 977.00 179.00 C 981.97 178.55 986.88 177.50 992.00 178.00 C 997.85 177.22 1003.75 176.61 1010.00 176.00 C 1015.12 175.50 1021.63 174.07 1027.00 173.00 C 1034.07 171.59 1041.96 171.54 1049.00 173.00 C 1054.18 174.07 1059.78 175.27 1065.00 176.00 C 1068.45 176.48 1070.83 177.27 1074.00 178.00 C 1085.81 177.31 1097.77 182.87 1108.74 185.26 C 1119.72 187.65 1129.27 192.87 1140.07 195.93 C 1150.88 198.98 1158.65 204.20 1169.23 208.77 C 1179.81 213.34 1186.26 220.80 1187.78 232.22 C 1189.30 243.64 1192.23 259.65 1191.00 271.00 C 1189.77 282.35 1175.74 292.46 1188.00 298.00 C 1182.21 358.67 1123.69 403.01 1065.00 404.00 C 1055.66 404.51 1045.94 403.84 1037.00 403.00 C 1026.42 402.01 1013.54 400.15 1003.99 397.01 C 994.44 393.87 984.31 390.06 976.30 384.70 C 968.30 379.34 959.34 375.36 953.77 368.23 C 948.19 361.10 938.18 354.57 936.00 346.00 C 935.36 345.45 935.21 343.91 934.00 344.00 C 934.00 361.00 934.00 378.00 934.00 395.00 C 932.24 394.95 930.93 396.53 929.00 396.00 C 925.72 396.88 922.58 397.04 919.00 397.00 C 906.78 399.36 894.19 400.47 881.00 399.00 C 869.78 397.75 859.51 396.02 851.25 386.75 C 842.99 377.48 843.72 364.12 844.00 351.00 C 844.28 337.88 843.63 321.77 844.00 308.00 C 844.37 294.23 843.29 280.19 844.00 266.00 C 844.71 251.81 843.34 239.00 842.02 224.98 C 840.71 210.95 830.75 209.18 820.00 204.00 C 816.53 204.31 812.47 204.31 809.00 204.00 C 801.35 207.68 790.54 207.40 785.00 215.00 C 782.01 224.10 786.35 235.34 785.00 245.00 C 783.65 254.66 785.71 266.14 785.00 276.00 C 784.29 285.86 785.55 297.27 785.00 307.00 C 784.45 316.73 785.75 327.72 785.00 337.00 C 784.25 346.28 786.40 359.69 785.00 368.00 C 783.60 376.31 789.36 392.52 782.00 396.00 C 775.59 399.03 765.16 398.31 758.00 399.00 C 750.07 399.77 741.25 399.77 733.00 399.00 C 716.94 397.49 697.49 391.48 696.00 372.00 C 694.51 352.51 694.62 328.34 695.00 308.00 C 695.38 287.66 693.93 264.13 695.00 244.00 C 696.07 223.87 690.63 207.35 670.00 204.00 C 666.57 203.44 661.44 203.51 658.00 204.00 C 647.26 205.53 634.45 208.73 636.00 222.00 C 637.55 235.27 635.15 249.54 636.00 263.00 C 636.85 276.46 635.31 289.37 636.00 303.00 C 636.69 316.63 635.02 330.13 636.00 344.00 C 636.98 357.87 634.02 369.62 636.00 384.00 C 637.98 398.38 622.26 399.00 610.00 399.00 C 609.50 399.00 609.00 399.00 609.00 399.00 C 602.74 403.63 587.66 399.12 580.00 399.00 C 572.34 398.88 563.28 394.16 557.10 389.90 C 550.93 385.64 547.28 376.32 546.00 369.00 C 519.46 395.23 482.80 401.01 447.00 404.00 C 437.49 404.52 427.52 404.38 418.00 404.00 C 415.92 403.92 414.45 404.40 413.00 403.00 C 412.70 403.24 412.00 403.00 412.00 403.00 C 368.07 403.00 319.85 379.85 311.00 334.00 C 308.65 321.85 308.82 309.75 312.00 298.00 C 311.51 273.89 331.49 260.03 351.03 249.03 C 370.56 238.02 403.10 238.20 426.00 235.00 C 427.04 234.85 429.44 234.23 431.00 234.00 C 439.95 232.70 451.67 232.46 461.00 231.00 C 470.33 229.54 462.75 214.37 456.77 210.23 C 450.79 206.09 439.09 202.44 431.00 202.00 C 418.87 201.34 407.24 201.03 395.00 202.00 C 385.98 202.72 374.98 206.14 366.33 207.33 C 357.67 208.52 348.92 216.51 340.78 214.22 C 332.64 211.93 330.85 199.37 327.00 194.00 C 320.93 214.96 313.10 235.35 305.74 255.74 C 298.39 276.13 291.20 295.80 283.07 316.07 C 274.95 336.35 266.22 353.11 256.75 372.75 C 247.28 392.39 222.88 400.11 201.00 400.00 C 195.57 400.51 190.03 400.49 185.00 400.00 C 169.94 401.46 152.36 395.71 140.75 386.25 C 129.15 376.78 126.31 361.52 120.03 348.97 C 113.75 336.42 108.59 320.86 103.22 307.78 C 97.86 294.70 92.10 279.53 87.07 265.93 C 82.04 252.33 76.59 237.09 71.68 223.32 C 66.77 209.55 61.24 193.76 57.07 179.93 C 52.91 166.09 46.47 149.69 44.20 136.75 C 41.93 123.81 28.20 102.08 38.30 91.30 C 48.39 80.51 67.49 77.73 81.07 76.07 C 94.65 74.42 111.17 78.12 122.25 88.75 C 133.32 99.39 135.73 114.87 139.93 129.07 C 144.13 143.28 148.29 159.62 152.78 174.22 C 157.27 188.83 161.87 203.93 166.33 218.67 C 170.79 233.42 175.53 248.12 179.93 263.07 C 184.32 278.03 189.35 292.95 194.00 308.00 C 200.70 291.99 204.24 274.43 208.98 256.98 C 213.72 239.52 218.46 222.55 222.97 204.97 C 227.48 187.39 231.77 170.08 236.00 152.00 C 240.22 133.91 246.18 117.93 248.99 98.99 C 251.81 80.05 276.18 77.91 293.00 76.00"/>
</g>
</svg>
